Coordinates
version=1
nRows=14
nColumns=20
inDegrees=yes

Units are S.I. units (second, meters, Newtons, ...)
Angles are in degrees.

endheader
time	pelvis_tilt	pelvis_list	pelvis_rotation	pelvis_tx	pelvis_ty	pelvis_tz	hip_flexion_r	hip_adduction_r	hip_rotation_r	knee_angle_r	ankle_angle_r	hip_flexion_l	hip_adduction_l	hip_rotation_l	knee_angle_l	ankle_angle_l	lumbar_extension	lumbar_bending	lumbar_rotation
      0.00000000	      5.37174688	     -5.33803316	     -4.58919951	      0.60841061	      1.01502179	      0.04146868	    -21.32616038	      5.05921522	      7.24112926	     -9.80360677	     13.87504344	     18.33374863	     -7.23912611	     -5.02521205	     -4.66373524	     -0.84374798	    -17.85772054	      2.97295785	      3.89555970
      0.01700000	      4.79481724	     -4.99414381	     -4.79221917	      0.60907382	      1.01378249	      0.03920513	    -20.85825514	      4.50994615	      7.37194804	    -11.77811941	     14.08464982	     19.28057464	     -6.70984865	     -4.78053643	     -7.01922863	     -2.23750191	    -17.14328414	      2.38195143	      3.88506888
      0.03300000	      4.42562991	     -4.63669757	     -4.75989468	      0.61063138	      1.01287862	      0.03630003	    -20.68529917	      3.97443307	      7.33250805	    -13.63847939	     13.94696633	     19.88745859	     -6.07073231	     -4.56112846	     -9.23257745	     -3.51352110	    -16.61236844	      1.81134811	      3.71961848
      0.05000000	      4.08290418	     -4.31475351	     -5.00185858	      0.61229919	      1.01225677	      0.03390722	    -20.21580794	      3.44216365	      7.53919608	    -16.13200148	     13.67429923	     20.41853563	     -5.63916943	     -4.59323603	    -11.55802878	     -4.40106673	    -16.13852018	      1.08063353	      3.54763786
      0.06700000	      4.23709869	     -4.02076361	     -5.01136181	      0.61488394	      1.01278403	      0.03164767	    -20.16595035	      3.00174568	      7.45194353	    -18.80986924	     12.81406944	     20.37941991	     -5.21254118	     -4.43136324	    -14.01750440	     -4.67003527	    -16.02497970	      0.35817847	      3.43668102
      0.08300000	      4.32825145	     -3.68976861	     -4.78778569	      0.61772324	      1.01380428	      0.02873264	    -19.61166403	      2.61965276	      6.91473439	    -22.19194472	     11.48322179	     20.06436044	     -4.66122296	     -4.07740064	    -15.87449955	     -4.68159543	    -15.86978699	     -0.30212969	      3.34982647
      0.10000000	      4.58390757	     -3.25551559	     -4.75827795	      0.62062697	      1.01535101	      0.02569095	    -18.57130667	      2.03971689	      6.22114124	    -26.60560969	      9.63401574	     19.48315667	     -4.06863518	     -4.05687239	    -17.77472203	     -4.15155533	    -15.86630327	     -1.08443269	      3.24292594
      0.11700000	      4.83136103	     -2.93117496	     -4.36396913	      0.62325066	      1.01743692	      0.02195187	    -17.06341207	      1.57256563	      4.76554890	    -31.48513331	      6.77013668	     18.67256390	     -3.44639923	     -3.75528670	    -19.14637824	     -3.47340974	    -15.84383350	     -1.60517618	      2.71706742
      0.13300000	      4.83420116	     -2.50693514	     -4.31807435	      0.62521542	      1.01940359	      0.01870260	    -14.56799199	      0.74836666	      3.12999430	    -37.16073121	      3.14176475	     17.81628123	     -2.82699250	     -3.89027765	    -19.97531142	     -2.66329518	    -15.64202399	     -2.29790268	      2.46087182
      0.15000000	      4.87188736	     -2.02118317	     -4.31336484	      0.62642049	      1.02173960	      0.01489334	    -11.73097773	     -0.45360972	      1.17379706	    -42.86989966	     -1.13021230	     16.59561838	     -2.06705346	     -4.17312555	    -20.08141692	     -1.89606613	    -15.50874080	     -2.81534461	      2.36911971
      0.16700000	      5.00078439	     -1.52525577	     -3.94975250	      0.62787414	      1.02431990	      0.01096480	     -9.09336196	     -1.84773953	     -1.27325307	    -47.95525403	     -5.19388810	     15.15698303	     -1.17304096	     -4.12048882	    -19.91824988	     -1.03818165	    -15.52092514	     -3.37577363	      1.46018510
      0.18300000	      5.08363425	     -0.78283889	     -4.24384888	      0.62742062	      1.02675076	      0.00723274	     -6.06509199	     -3.77818011	     -2.93331889	    -53.04948022	     -7.75597627	     13.57587080	     -0.11930266	     -4.68684735	    -19.22085531	     -0.40512149	    -15.60846319	     -4.17873590	      1.31521770
      0.20000000	      5.11736551	     -0.23228560	     -4.21044245	      0.62704223	      1.02901985	      0.00343198	     -3.24175252	     -5.39268802	     -4.46283519	    -57.51704456	     -8.36253179	     12.12955576	      0.81228279	     -4.77505033	    -18.67245819	      0.33570575	    -15.54832212	     -4.66341761	      0.48487917
      0.21700000	      5.07923834	      0.11134612	     -4.12902219	      0.62604499	      1.03119563	     -0.00032688	     -0.45243394	     -6.60421308	     -5.56545176	    -61.47296381	     -7.16833032	     10.76428878	      1.52339994	     -4.72022033	    -18.09126984	      1.02076783	    -15.51437997	     -4.86723063	      0.19198303
